<svg width="259" height="102" viewBox="0 0 259 102" fill="none" xmlns="http://www.w3.org/2000/svg">
<path fill-rule="evenodd" clip-rule="evenodd" d="M18.3823 33.085L65.6365 14.3174L70.6152 25.5765L23.361 44.3441L18.3823 33.085Z" fill="#14213D"/>
<path fill-rule="evenodd" clip-rule="evenodd" d="M38.0544 84.4058L17.0487 33.4938L30.4039 29.0343L51.4095 79.9463L38.0544 84.4058Z" fill="#14213D"/>
<path fill-rule="evenodd" clip-rule="evenodd" d="M87.201 66.2254L47.0393 81.3702L42.2776 70.0231L82.4393 54.8783L87.201 66.2254Z" fill="#14213D"/>
<path fill-rule="evenodd" clip-rule="evenodd" d="M27.7576 58.189C26.418 55.0652 28.1267 51.4529 31.5742 50.1207L69.0269 35.6469C72.4744 34.3147 76.3551 35.767 77.6947 38.8907C79.0343 42.0144 77.3256 45.6267 73.8781 46.959L36.4254 61.4327C32.9779 62.765 29.0972 61.3127 27.7576 58.189Z" fill="#14213D"/>
<path fill-rule="evenodd" clip-rule="evenodd" d="M31.3609 5.93243C34.7594 4.55968 38.733 5.96273 40.2363 9.06624L46.7687 22.5528C48.2719 25.6563 46.7355 29.285 43.337 30.6578C39.9385 32.0306 35.9649 30.6275 34.4617 27.524L27.9292 14.0374C26.426 10.9339 27.9624 7.30519 31.3609 5.93243Z" fill="#14213D"/>
<path fill-rule="evenodd" clip-rule="evenodd" d="M63.4866 67.2705C66.8851 65.8978 70.8587 67.3009 72.3619 70.4044L78.8941 83.8911C80.3972 86.9946 78.8608 90.6233 75.4623 91.996C72.0637 93.3687 68.0901 91.9656 66.5869 88.8621L60.0548 75.3754C58.5516 72.2719 60.0881 68.6432 63.4866 67.2705Z" fill="#14213D"/>
<path d="M138.977 18.8438L139.258 29.3203H138.719C138.547 28.8672 138.414 28.5234 138.32 28.2891C137.773 26.7891 137.328 25.6719 136.984 24.9375C136.375 23.625 135.492 22.4219 134.336 21.3281C133.461 20.5 132.555 19.8984 131.617 19.5234C130.68 19.1484 129.625 18.9609 128.453 18.9609C126.688 18.9609 125.156 19.3438 123.859 20.1094C122.719 20.7812 121.656 21.75 120.672 23.0156C119.688 24.2656 118.883 25.6953 118.258 27.3047C117.367 29.5703 116.922 32.1484 116.922 35.0391C116.922 37.4922 117.227 39.7031 117.836 41.6719C118.445 43.6406 119.336 45.2891 120.508 46.6172C122.664 49.0859 125.523 50.3203 129.086 50.3203C130.867 50.3203 132.469 50.0156 133.891 49.4062C135.312 48.7812 136.414 47.9062 137.195 46.7812C138.102 45.4844 138.758 43.7344 139.164 41.5312L139.703 41.625C139.406 44.0938 138.734 46.0547 137.688 47.5078C136.688 48.8984 135.305 49.9609 133.539 50.6953C131.789 51.4297 129.758 51.7969 127.445 51.7969C125.289 51.7969 123.227 51.4766 121.258 50.8359C118.117 49.8047 115.664 47.9453 113.898 45.2578C112.133 42.5547 111.25 39.3359 111.25 35.6016C111.25 32.7422 111.766 30.1094 112.797 27.7031C113.828 25.2812 115.266 23.3359 117.109 21.8672C118.531 20.7422 120.227 19.8516 122.195 19.1953C124.18 18.5234 126.164 18.1875 128.148 18.1875C130.039 18.1875 132.039 18.5469 134.148 19.2656L136.07 19.8984C136.445 20.0391 136.773 20.1094 137.055 20.1094C137.445 20.1094 137.766 19.9453 138.016 19.6172C138.125 19.4609 138.258 19.2031 138.414 18.8438H138.977ZM148.469 34.3359C149.031 33.3516 149.664 32.6094 150.367 32.1094C151.664 31.1875 153.141 30.7266 154.797 30.7266C155.812 30.7266 156.586 30.9531 157.117 31.4062C157.602 31.8125 157.844 32.3125 157.844 32.9062C157.844 33.3438 157.695 33.7031 157.398 33.9844C157.117 34.2656 156.75 34.4062 156.297 34.4062C155.766 34.4062 155.305 34.1875 154.914 33.75L154.188 32.9531C153.609 32.3438 152.93 32.0391 152.148 32.0391C151.086 32.0391 150.258 32.7266 149.664 34.1016C149.07 35.4766 148.773 37.3906 148.773 39.8438V44.2266L148.797 46.0078C148.797 47.0703 148.859 47.8516 148.984 48.3516C149.109 48.8359 149.352 49.2422 149.711 49.5703C150.148 49.9922 150.953 50.3125 152.125 50.5312V51H141.789V50.5312C142.727 50.4062 143.398 50.2344 143.805 50.0156C144.211 49.7812 144.539 49.3906 144.789 48.8438C144.961 48.4844 145.078 47.9453 145.141 47.2266C145.219 46.4922 145.258 45.4375 145.258 44.0625V38.2734C145.258 36.6641 145.219 35.5391 145.141 34.8984C145.062 34.2422 144.891 33.7109 144.625 33.3047C144.359 32.8672 144.039 32.5547 143.664 32.3672C143.289 32.1641 142.75 32.0391 142.047 31.9922V31.5234L148.07 30.6797C148.336 32.1016 148.469 33.3203 148.469 34.3359ZM157.773 31.0781H166.844V31.5703C166.203 31.6641 165.742 31.7891 165.461 31.9453C164.852 32.2891 164.547 32.8203 164.547 33.5391C164.547 34.1641 164.867 35.2812 165.508 36.8906L169.445 46.9453L172.867 38.4844C173.711 36.375 174.133 34.8828 174.133 34.0078C174.133 33.3047 173.938 32.75 173.547 32.3438C173.156 31.9219 172.586 31.6641 171.836 31.5703V31.0781H178.539V31.5703C177.867 31.7578 177.367 31.9531 177.039 32.1562C176.727 32.3594 176.422 32.6797 176.125 33.1172C175.672 33.8047 174.953 35.3438 173.969 37.7344L167.172 54.2344C166.359 56.2031 165.703 57.4844 165.203 58.0781C164.359 59.0625 163.289 59.5547 161.992 59.5547C161.164 59.5547 160.492 59.3906 159.977 59.0625C159.477 58.75 159.227 58.3359 159.227 57.8203C159.227 57.4141 159.375 57.0859 159.672 56.8359C159.969 56.6016 160.359 56.4844 160.844 56.4844C161.25 56.4844 161.719 56.5938 162.25 56.8125C162.766 57.0156 163.094 57.1406 163.234 57.1875C163.391 57.2344 163.57 57.2578 163.773 57.2578C164.742 57.2578 165.531 56.5312 166.141 55.0781L166.867 53.2969C167.18 52.5469 167.336 51.9688 167.336 51.5625C167.336 50.9844 167.039 49.9766 166.445 48.5391L161.57 36.8438L160.867 35.1562C160.445 34.1562 160.117 33.4453 159.883 33.0234C159.648 32.6016 159.414 32.2969 159.18 32.1094C158.789 31.8125 158.32 31.6328 157.773 31.5703V31.0781ZM185.688 49.0312L185.711 53.3438V54.9609C185.711 56.0234 185.773 56.7969 185.898 57.2812C186.023 57.7812 186.266 58.2031 186.625 58.5469C187.062 58.9688 187.867 59.2812 189.039 59.4844V59.9531H178.703V59.4844C179.641 59.3594 180.312 59.1875 180.719 58.9688C181.125 58.75 181.453 58.3672 181.703 57.8203C181.875 57.4609 181.992 56.9141 182.055 56.1797C182.133 55.4453 182.172 54.3984 182.172 53.0391V36.8438C182.172 35.0781 181.891 33.8203 181.328 33.0703C180.781 32.3203 179.852 31.9453 178.539 31.9453V31.3594L185.359 30.3984C185.531 31.1484 185.617 31.8359 185.617 32.4609V32.9062C186.773 32.125 187.859 31.5703 188.875 31.2422C189.891 30.8984 190.992 30.7266 192.18 30.7266C194.555 30.7266 196.586 31.4375 198.273 32.8594C199.336 33.7656 200.156 34.8984 200.734 36.2578C201.312 37.6172 201.602 39.1172 201.602 40.7578C201.602 42.4609 201.289 44.0469 200.664 45.5156C200.055 46.9844 199.18 48.1953 198.039 49.1484C196.258 50.6641 194.141 51.4219 191.688 51.4219C190.516 51.4219 189.5 51.25 188.641 50.9062C187.797 50.5625 186.812 49.9375 185.688 49.0312ZM185.688 41.25C185.688 43.4062 185.781 45.0312 185.969 46.125C186.156 47.2188 186.492 48.1016 186.977 48.7734C187.414 49.3672 187.984 49.8438 188.688 50.2031C189.406 50.5625 190.133 50.7422 190.867 50.7422C192.523 50.7422 193.969 49.9609 195.203 48.3984C195.953 47.4609 196.531 46.3516 196.938 45.0703C197.344 43.7891 197.547 42.4531 197.547 41.0625C197.547 39.7188 197.352 38.4062 196.961 37.125C196.586 35.8281 196.055 34.7188 195.367 33.7969C194.195 32.2031 192.766 31.4062 191.078 31.4062C190.25 31.4062 189.469 31.6094 188.734 32.0156C188 32.4219 187.414 32.9766 186.977 33.6797C186.492 34.4297 186.156 35.3672 185.969 36.4922C185.781 37.6016 185.688 39.1875 185.688 41.25ZM209.758 31.0781H215.734V31.9688H209.758V45.6094C209.758 47.25 210.039 48.4219 210.602 49.125C210.898 49.5156 211.289 49.8203 211.773 50.0391C212.258 50.2578 212.781 50.3672 213.344 50.3672C214.047 50.3672 214.633 50.2266 215.102 49.9453C215.57 49.6484 216.086 49.1172 216.648 48.3516L217 48.6562C216.484 49.5938 215.758 50.2891 214.82 50.7422C213.898 51.1953 212.742 51.4219 211.352 51.4219C209.508 51.4219 208.164 51.0625 207.32 50.3438C206.867 49.9688 206.57 49.5234 206.43 49.0078C206.289 48.4766 206.219 47.5312 206.219 46.1719V31.9688H203.711V31.5938C204.727 31.2656 205.664 30.6328 206.523 29.6953C207.039 29.1172 207.453 28.5469 207.766 27.9844C208.078 27.4062 208.375 26.6641 208.656 25.7578L208.891 24.9844H209.758V31.0781ZM216.977 41.1094C216.977 38.5781 217.914 36.3203 219.789 34.3359C222.07 31.9297 224.797 30.7266 227.969 30.7266C231.141 30.7266 233.859 31.9297 236.125 34.3359C238 36.3359 238.938 38.6016 238.938 41.1328C238.938 43.6328 238.047 45.8594 236.266 47.8125C234.078 50.2188 231.312 51.4219 227.969 51.4219C224.625 51.4219 221.852 50.2188 219.648 47.8125C218.789 46.875 218.125 45.8281 217.656 44.6719C217.203 43.5156 216.977 42.3281 216.977 41.1094ZM221.242 40.8516C221.242 43.5703 221.852 45.875 223.07 47.7656C224.445 49.875 226.125 50.9297 228.109 50.9297C228.953 50.9297 229.773 50.6953 230.57 50.2266C231.367 49.7578 232.055 49.1016 232.633 48.2578C233.242 47.3828 233.734 46.2891 234.109 44.9766C234.484 43.6484 234.672 42.3672 234.672 41.1328C234.672 39.8516 234.469 38.5625 234.062 37.2656C233.672 35.9531 233.141 34.8281 232.469 33.8906C231.188 32.125 229.617 31.2422 227.758 31.2422C225.992 31.2422 224.469 32.1719 223.188 34.0312C221.891 35.8906 221.242 38.1641 221.242 40.8516ZM135.344 67.0078L135.742 74.7422L135.203 74.7656C135 73.4531 134.664 72.3672 134.195 71.5078C133.727 70.6484 133.047 69.8906 132.156 69.2344C131.422 68.6875 130.555 68.3047 129.555 68.0859C128.555 67.8516 127.227 67.7344 125.57 67.7344H120.203V81.7969H121.609C123.031 81.7969 124.102 81.7031 124.82 81.5156C125.539 81.3281 126.125 80.9922 126.578 80.5078C127.016 80.0547 127.336 79.5234 127.539 78.9141C127.758 78.2891 127.938 77.375 128.078 76.1719L128.617 76.1953L128.523 88.7578H127.984C127.844 87.5547 127.633 86.5859 127.352 85.8516C127.086 85.1172 126.711 84.4922 126.227 83.9766C125.758 83.4766 125.148 83.1094 124.398 82.875C123.648 82.6406 122.695 82.5234 121.539 82.5234H120.203V87.8906C120.203 90.0312 120.258 91.5938 120.367 92.5781C120.477 93.5469 120.688 94.3594 121 95.0156C121.531 96.1406 122.336 96.9688 123.414 97.5C124.508 98.0156 125.945 98.2734 127.727 98.2734C129.602 98.2734 131.172 98.0391 132.438 97.5703C133.703 97.0859 134.734 96.3438 135.531 95.3438C136.094 94.6719 136.547 93.9062 136.891 93.0469C137.25 92.1875 137.578 91.0547 137.875 89.6484L138.414 89.6719L138.109 99H110.148V98.4609C111.039 98.4141 111.758 98.2891 112.305 98.0859C112.867 97.8828 113.367 97.5547 113.805 97.1016C114.289 96.6016 114.617 95.9688 114.789 95.2031C114.977 94.4219 115.07 93.2344 115.07 91.6406V74.3672C115.07 72.7734 114.977 71.5938 114.789 70.8281C114.617 70.0469 114.289 69.4062 113.805 68.9062C113.383 68.4531 112.891 68.125 112.328 67.9219C111.781 67.7188 111.055 67.5938 110.148 67.5469V67.0078H135.344ZM158.828 99H140.617V98.5312C142.539 96.8281 144.461 94.9297 146.383 92.8359C148.32 90.7422 149.977 88.7578 151.352 86.8828C153.289 84.2578 154.68 81.9922 155.523 80.0859C156.383 78.1797 156.812 76.3984 156.812 74.7422C156.812 72.5078 156.094 70.6172 154.656 69.0703C153.453 67.7891 152.016 67.1484 150.344 67.1484C148.891 67.1484 147.617 67.6016 146.523 68.5078C145.773 69.1016 145.195 69.8672 144.789 70.8047C144.383 71.7422 144.18 72.7656 144.18 73.875C144.18 75.6875 144.789 77.1875 146.008 78.375C146.539 78.9062 147.125 79.3203 147.766 79.6172C148.422 79.8984 149.07 80.0391 149.711 80.0391C149.836 80.0391 150.023 80.0312 150.273 80.0156L150.414 80.4141C149.273 81.0078 148.281 81.3047 147.438 81.3047C146.109 81.3047 144.922 80.8125 143.875 79.8281C143.234 79.2344 142.742 78.5 142.398 77.625C142.055 76.75 141.883 75.8125 141.883 74.8125C141.883 72.4219 142.742 70.4609 144.461 68.9297C146.242 67.3672 148.484 66.5859 151.188 66.5859C152.656 66.5859 154.016 66.8359 155.266 67.3359C156.531 67.8203 157.586 68.5234 158.43 69.4453C159.195 70.2578 159.781 71.2109 160.188 72.3047C160.594 73.3984 160.797 74.5391 160.797 75.7266C160.797 78.0703 159.977 80.4688 158.336 82.9219C157.539 84.0938 156.578 85.2578 155.453 86.4141C154.328 87.5547 152.766 88.9609 150.766 90.6328C148.203 92.7422 146.367 94.3047 145.258 95.3203H153.719C155.141 95.3203 156.148 95.2344 156.742 95.0625C157.539 94.8438 158.203 94.4453 158.734 93.8672C159.328 93.2266 159.805 92.3125 160.164 91.125L160.68 91.2188L158.828 99Z" fill="black"/>
</svg>
