<svg width="90" height="90" viewBox="0 0 90 90" fill="none" xmlns="http://www.w3.org/2000/svg">
<path d="M73.9901 23.1961L48.8257 12.4114C47.8195 11.9802 46.6805 11.9802 45.6743 12.4114L20.5099 23.1961C18.8715 23.8983 17.8954 25.6 18.1165 27.3688L21.4795 54.2727C21.7625 56.5371 22.8952 58.6095 24.6483 60.0704L44.6893 76.7712C46.1727 78.0073 48.3273 78.0073 49.8107 76.7712L69.8517 60.0704C71.6048 58.6095 72.7375 56.5371 73.0205 54.2727L76.3835 27.3688C76.6046 25.6 75.6285 23.8983 73.9901 23.1961Z" stroke="#FCA311" stroke-width="6" stroke-linecap="round"/>
<path d="M34 45.25L44.8187 56.0687C45.0419 56.2918 45.4133 56.2551 45.5883 55.9925L60.25 34" stroke="#FCA311" stroke-width="6" stroke-linecap="round"/>
</svg>
