<svg width="66" height="66" viewBox="0 0 66 66" fill="none" xmlns="http://www.w3.org/2000/svg">
<circle cx="33" cy="33" r="30" stroke="#FCA311" stroke-width="6"/>
<path d="M57.6449 12.3297C54.931 15.2622 51.3257 17.6683 47.1269 19.3492C42.9281 21.0302 38.2563 21.9377 33.4974 21.9969C28.7386 22.0561 24.0292 21.2652 19.7584 19.6896C15.4876 18.114 11.7779 15.7989 8.9358 12.9356" stroke="#FCA311" stroke-width="6"/>
<path d="M57.6449 53.6703C54.931 50.7378 51.3257 48.3317 47.1269 46.6508C42.9281 44.9698 38.2563 44.0623 33.4974 44.0031C28.7386 43.9439 24.0292 44.7348 19.7584 46.3104C15.4876 47.886 11.7779 50.2011 8.9358 53.0644" stroke="#FCA311" stroke-width="6"/>
<path d="M33 3V63" stroke="#FCA311" stroke-width="6"/>
<path d="M63 33H3" stroke="#FCA311" stroke-width="6"/>
</svg>
